<svg width="20" height="20" viewBox="0 0 20 20" fill="none" xmlns="http://www.w3.org/2000/svg">
<path d="M7.46178 1.10676C8.66232 1.10363 9.83983 1.43614 10.8614 2.06676C11.883 2.69737 12.7079 3.60099 13.2432 4.67562C13.7784 5.75024 14.0026 6.95308 13.8904 8.14837C13.7783 9.34365 13.3342 10.4838 12.6085 11.4401L18.9951 17.6734L17.8285 18.8668L11.4418 12.6268C10.6334 13.2622 9.6849 13.6954 8.67525 13.89C7.6656 14.0847 6.62405 14.0353 5.63736 13.7459C4.65067 13.4566 3.74741 12.9356 3.00283 12.2265C2.25824 11.5173 1.69389 10.6405 1.35679 9.6691C1.01969 8.69768 0.91959 7.65977 1.06484 6.64183C1.21009 5.6239 1.59648 4.6554 2.19182 3.81703C2.78716 2.97867 3.57421 2.29469 4.48742 1.8221C5.40062 1.3495 6.41354 1.10196 7.44178 1.1001L7.46178 1.10676ZM7.46178 12.3468C8.40792 12.3441 9.33206 12.0612 10.1175 11.5336C10.9029 11.006 11.5143 10.2575 11.8746 9.38266C12.2348 8.50778 12.3277 7.54576 12.1415 6.61812C11.9553 5.69048 11.4984 4.83882 10.8284 4.17073C10.1585 3.50263 9.30555 3.04807 8.37739 2.86445C7.44923 2.68084 6.48748 2.7764 5.61361 3.13908C4.73973 3.50176 3.99294 4.11529 3.46757 4.90216C2.94219 5.68903 2.66179 6.61395 2.66178 7.5601C2.66266 8.18957 2.78751 8.8127 3.0292 9.39392C3.2709 9.97514 3.62471 10.5031 4.07043 10.9475C4.51615 11.392 5.04506 11.7444 5.62695 11.9844C6.20884 12.2245 6.83231 12.3476 7.46178 12.3468Z" fill="#282B3E"/>
</svg>
